{
  "accessors": [
    {
      "bufferView": 2,
      "componentType": 5126,
      "count": 15872,
      "max": [
        1.1156569719314575,
        1.1156569719314575,
        2.203205108642578
      ],
      "min": [
        -1.1156569719314575,
        -1.1156569719314575,
        -0.02810800075531006
      ],
      "type": "VEC3"
    },
    {
      "bufferView": 2,
      "byteOffset": 190464,
      "componentType": 5126,
      "count": 15872,
      "max": [
        0.9966199398040771,
        0.9966204166412354,
        0.9989497065544128
      ],
      "min": [
        -0.9966203570365906,
        -0.9966202974319458,
        -0.9989497065544128
      ],
      "type": "VEC3"
    },
    {
      "bufferView": 1,
      "componentType": 5126,
      "count": 15872,
      "max": [
        1.0018450021743774,
        0.9355829954147339
      ],
      "min": [
        0.0010079999919980764,
        0.06441699713468552
      ],
      "type": "VEC2"
    },
    {
      "bufferView": 0,
      "componentType": 5125,
      "count": 23808,
      "type": "SCALAR"
    }
  ],
  "asset": {
    "extras": {
      "author": "pattonv15 (https://sketchfab.com/pattonv15)",
      "license": "CC-BY-4.0 (http://creativecommons.org/licenses/by/4.0/)",
      "source": "https://sketchfab.com/3d-models/wireframe-sphere-6e61826a382b49629e93790a5cd910ce",
      "title": "Wireframe Sphere"
    },
    "generator": "Sketchfab-12.65.0",
    "version": "2.0"
  },
  "bufferViews": [
    {
      "buffer": 0,
      "byteLength": 95232,
      "name": "floatBufferViews",
      "target": 34963
    },
    {
      "buffer": 0,
      "byteLength": 126976,
      "byteOffset": 95232,
      "byteStride": 8,
      "name": "floatBufferViews",
      "target": 34962
    },
    {
      "buffer": 0,
      "byteLength": 380928,
      "byteOffset": 222208,
      "byteStride": 12,
      "name": "floatBufferViews",
      "target": 34962
    }
  ],
  "buffers": [
    {
      "byteLength": 603136,
      "uri": "scene.bin"
    }
  ],
  "materials": [
    {
      "doubleSided": true,
      "name": "None",
      "pbrMetallicRoughness": {
        "metallicFactor": 0.0,
        "roughnessFactor": 0.6
      }
    }
  ],
  "meshes": [
    {
      "name": "Object_0",
      "primitives": [
        {
          "attributes": {
            "NORMAL": 1,
            "POSITION": 0,
            "TEXCOORD_0": 2
          },
          "indices": 3,
          "material": 0,
          "mode": 4
        }
      ]
    }
  ],
  "nodes": [
    {
      "children": [
        1
      ],
      "matrix": [
        1.0,
        0.0,
        0.0,
        0.0,
        0.0,
        2.220446049250313e-16,
        -1.0,
        0.0,
        0.0,
        1.0,
        2.220446049250313e-16,
        0.0,
        0.0,
        0.0,
        0.0,
        1.0
      ],
      "name": "Sketchfab_model"
    },
    {
      "children": [
        2
      ],
      "name": "d9df90e67e504ce6baf250c21370b886.obj.cleaner.materialmerger.gles"
    },
    {
      "mesh": 0,
      "name": "Object_2"
    }
  ],
  "scene": 0,
  "scenes": [
    {
      "name": "Sketchfab_Scene",
      "nodes": [
        0
      ]
    }
  ]
}
